<?xml version="1.0" standalone="no"?>
<!DOCTYPE svg PUBLIC "-//W3C//DTD SVG 20010904//EN"
 "http://www.w3.org/TR/2001/REC-SVG-20010904/DTD/svg10.dtd">
<svg version="1.0" xmlns="http://www.w3.org/2000/svg"
 width="512.000000pt" height="512.000000pt" viewBox="0 0 512.000000 512.000000"
 preserveAspectRatio="xMidYMid meet">
<metadata>
Created by potrace 1.14, written by Peter Selinger 2001-2017
</metadata>
<g transform="translate(0.000000,512.000000) scale(0.100000,-0.100000)"
fill="#000000" stroke="none">
<path d="M2152 4939 c-26 -10 -52 -62 -45 -90 3 -9 25 -41 51 -71 63 -74 94
-147 91 -217 -3 -85 -30 -132 -143 -252 -75 -78 -108 -133 -131 -211 -42 -146
14 -325 139 -450 44 -44 89 -50 123 -18 44 41 39 78 -21 145 -55 61 -91 140
-93 205 -2 79 37 155 132 255 119 126 159 212 156 342 -2 106 -49 212 -138
312 -49 55 -77 66 -121 50z"/>
<path d="M1531 4559 c-52 -21 -67 -84 -30 -129 97 -120 97 -180 1 -283 -90
-96 -123 -165 -123 -256 -1 -118 101 -281 175 -281 48 1 89 43 81 86 -2 10 -4
21 -4 24 -1 3 -13 19 -27 35 -38 44 -64 100 -64 137 0 43 23 84 86 151 28 30
64 81 80 113 55 114 29 254 -67 356 -48 51 -72 61 -108 47z"/>
<path d="M2711 4563 c-32 -6 -50 -25 -57 -61 -7 -33 6 -62 47 -109 70 -80 58
-155 -41 -262 -72 -77 -101 -136 -108 -217 -5 -72 15 -144 60 -210 60 -89 121
-116 166 -74 36 34 38 65 6 111 -79 113 -87 139 -59 207 9 20 37 60 63 87 65
69 88 104 105 163 22 74 15 152 -22 227 -28 56 -109 147 -128 144 -5 -1 -19
-4 -32 -6z"/>
<path d="M113 3415 c-45 -19 -91 -72 -103 -116 -6 -21 -8 -67 -5 -101 3 -35 7
-90 10 -123 3 -32 7 -73 10 -90 2 -16 7 -52 10 -80 5 -45 37 -239 50 -305 20
-105 31 -153 66 -287 59 -234 196 -626 259 -741 5 -9 30 -60 56 -112 122 -248
296 -507 467 -695 26 -27 41 -51 34 -52 -7 -1 -59 -3 -117 -5 -86 -3 -113 -8
-150 -27 -97 -50 -151 -135 -152 -240 -1 -107 71 -210 173 -249 50 -18 78 -20
346 -20 l291 0 27 28 c15 15 25 32 23 37 -1 4 22 9 53 11 54 3 57 2 68 -27 7
-16 25 -34 39 -40 19 -7 333 -10 1012 -8 l985 2 48 24 c98 48 149 126 153 233
3 58 -1 75 -27 128 -54 107 -120 142 -283 150 l-119 5 79 90 c43 50 103 123
133 162 59 78 52 76 136 38 139 -63 337 -92 506 -74 461 50 833 400 912 859
19 107 15 301 -7 393 -63 257 -191 456 -396 611 -104 78 -264 154 -382 180
-24 6 -27 10 -23 44 2 20 7 71 11 112 16 158 4 204 -69 264 l-39 31 -261 3
c-144 2 -277 0 -295 -3 -26 -5 -37 -14 -48 -41 -14 -34 -15 -35 -74 -33 -50 2
-60 5 -60 20 0 10 -12 27 -26 38 l-27 21 -1631 0 c-1361 -1 -1636 -3 -1663
-15z m4169 -1013 c78 -36 158 -105 200 -172 33 -51 60 -109 60 -127 0 -4 5
-19 10 -33 6 -14 11 -56 13 -95 4 -128 -48 -257 -143 -353 -137 -138 -336
-181 -518 -112 l-23 9 35 78 c51 113 58 129 92 218 69 183 127 370 163 518 17
72 27 97 38 97 9 -1 42 -13 73 -28z"/>
</g>
</svg>
